<?xml version="1.0" encoding="utf-8"?>
<!-- Generator: Adobe Illustrator 16.0.3, SVG Export Plug-In . SVG Version: 6.00 Build 0)  -->
<!DOCTYPE svg PUBLIC "-//W3C//DTD SVG 1.1//EN" "http://www.w3.org/Graphics/SVG/1.1/DTD/svg11.dtd">
<svg version="1.1" id="圖層_1" xmlns:vectornator="http://vectornator.io"
	 xmlns="http://www.w3.org/2000/svg" xmlns:xlink="http://www.w3.org/1999/xlink" x="0px" y="0px" width="600px" height="600px"
	 viewBox="0.445 595.14 600 600" enable-background="new 0.445 595.14 600 600" xml:space="preserve">
<rect x="0.445" y="595.14" fill="#FFFFFF" width="600" height="600"/>
<g id="Untitled" vectornator:layerName="Untitled">
	<path fill="none" stroke="#101010" stroke-width="6.1228" d="M71.815,1012.083c87.188-230.343,333.88,26.127,336.21-162.782
		c1.184-96.137-88.412-85.409-141.615-79.436c-37.609,4.223-149.177,87.221-176.022,4.843
		c-12.165-37.329,9.438-117.681,86.416-116.996c130.556,1.161,209.296,0.072,264.755-0.437c38-0.349,82.133,53.242,93.688,96.581
		c11.227,42.11-26.74,83.475-32.232,126.708c-10.609,83.56,74.422,214.979-0.896,252.687
		c-40.309,20.182-63.479-80.85-108.555-80.643c-39.785,0.182-55.414,73.941-95.156,72.053c-37.411-1.777-45.31-74.783-82.745-76.018
		c-37.596-1.24-51.136,78.426-87.952,70.709C88.247,1111.08,58.191,1048.076,71.815,1012.083z"/>
</g>
</svg>
