<?xml version="1.0" encoding="UTF-8" standalone="no"?> <!-- Created with Vectornator for iOS (http://vectornator.io/) --><!DOCTYPE svg PUBLIC "-//W3C//DTD SVG 1.1//EN" "http://www.w3.org/Graphics/SVG/1.1/DTD/svg11.dtd">
<svg height="100%" style="fill-rule:nonzero;clip-rule:evenodd;stroke-linecap:round;stroke-linejoin:round;" xmlns:xlink="http://www.w3.org/1999/xlink" xmlns="http://www.w3.org/2000/svg" xml:space="preserve" width="100%" xmlns:vectornator="http://vectornator.io" version="1.1" viewBox="0 0 5669.29 5669.29">
<metadata>
<vectornator:setting key="DimensionsVisible" value="1"/>
<vectornator:setting key="PencilOnly" value="0"/>
<vectornator:setting key="SnapToPoints" value="0"/>
<vectornator:setting key="OutlineMode" value="0"/>
<vectornator:setting key="CMYKEnabledKey" value="0"/>
<vectornator:setting key="RulersVisible" value="1"/>
<vectornator:setting key="SnapToEdges" value="0"/>
<vectornator:setting key="GuidesVisible" value="1"/>
<vectornator:setting key="DisplayWhiteBackground" value="0"/>
<vectornator:setting key="doHistoryDisabled" value="0"/>
<vectornator:setting key="SnapToGuides" value="1"/>
<vectornator:setting key="TimeLapseWatermarkDisabled" value="0"/>
<vectornator:setting key="Units" value="Points"/>
<vectornator:setting key="DynamicGuides" value="0"/>
<vectornator:setting key="IsolateActiveLayer" value="0"/>
<vectornator:setting key="SnapToGrid" value="0"/>
</metadata>
<defs/>
<g id="Untitled" vectornator:layerName="Untitled">
<path stroke="#101010" stroke-width="51.0236" d="M657.238+3948.38C1487.59+1754.66+3837.01+4197.2+3859.2+2398.09C3870.49+1482.51+3017.2+1584.68+2510.51+1641.57C2152.32+1681.78+1089.79+2472.23+834.117+1687.69C718.262+1332.18+924+566.93+1657.12+573.449C2900.5+584.512+3650.39+574.141+4178.57+569.293C4540.47+565.969+4960.78+1076.36+5070.82+1489.1C5177.75+1890.15+4816.16+2284.09+4763.86+2695.84C4662.81+3491.63+5472.62+4743.25+4755.32+5102.36C4371.43+5294.55+4150.77+4332.36+3721.47+4334.33C3342.56+4336.07+3193.72+5038.54+2815.23+5020.55C2458.93+5003.62+2383.71+4308.33+2027.19+4296.57C1669.13+4284.76+1540.18+5043.49+1189.55+4969.98C813.73+4891.19+527.488+4291.16+657.238+3948.38Z" fill="none" stroke-linecap="butt" opacity="1" stroke-linejoin="miter"/>
</g>
</svg>
